# xmcd CD database file
# Copyright (C) 1993-1998 Ti Kan
#
# Track frame offsets:
#	150
#	16685
#	26705
#	41568
#	60497
#	74793
#	90475
#	120645
#	135129
#	146715
#	158345
#	171435
#	190860
#	209140
#
# Disc length: 2942 seconds
#
# Revision: 0
# Processed by: cddbd v1.4b41PL1 Copyright (c) Steve Scherf et al.
# Submitted via: CDmax 1.5
#
DISCID=c00b7c0e
DTITLE=The Rockin' Highliners - Chicks, Suits and Cadillacs
DYEAR=1900
DGENRE=
TTITLE0=Valentine (video cut)
TTITLE1=Train Station Serenade
TTITLE2=Hot Little Mama
TTITLE3=Eat Where You Slept (Last Night)
TTITLE4=Right on Down
TTITLE5=Alimony Blues
TTITLE6=Evenin'
TTITLE7=Look On Yonder Wall
TTITLE8=Kay Guitars
TTITLE9=Bad Case of Love
TTITLE10=Lonesome Train
TTITLE11=Old Maid Boogie
TTITLE12=Valentine
TTITLE13=Chicks, Suits and Cadillacs
EXTD=
EXTT0=
EXTT1=
EXTT2=
EXTT3=
EXTT4=
EXTT5=
EXTT6=
EXTT7=
EXTT8=
EXTT9=
EXTT10=
EXTT11=
EXTT12=
EXTT13=
PLAYORDER=
